<svg width="1213" height="232" viewBox="0 0 1213 232" fill="none" xmlns="http://www.w3.org/2000/svg">
<path d="M43.0503 226.763V182.048H82.7974C92.7342 182.048 101.697 180.586 109.685 177.664C117.674 174.546 124.493 170.26 130.143 164.804C135.794 159.154 140.08 152.432 143.003 144.639C145.925 136.65 147.386 127.882 147.386 118.335C147.386 108.399 145.925 99.5334 143.003 91.7398C140.08 83.9463 135.794 77.3217 130.143 71.8663C124.493 66.4108 117.674 62.3192 109.685 59.5914C101.697 56.6689 92.7342 55.2076 82.7974 55.2076H43.0503V10.4921H80.1671C99.4561 10.4921 116.31 13.3172 130.728 18.9676C145.146 24.6179 157.226 32.314 166.968 42.0559C176.71 51.7979 183.919 63.0011 188.595 75.6656C193.466 88.1353 195.901 101.287 195.901 115.12V121.55C195.901 134.409 193.466 147.171 188.595 159.836C183.919 172.306 176.71 183.606 166.968 193.738C157.226 203.675 145.146 211.663 130.728 217.703C116.31 223.743 99.4561 226.763 80.1671 226.763H43.0503ZM0.965159 226.763V10.4921H48.8955V226.763H0.965159ZM225.492 225.594V65.4366H272.254V225.594H225.492ZM204.158 99.923V65.4366H272.254V99.923H204.158ZM243.612 49.6546C234.845 49.6546 228.318 47.414 224.031 42.9327C219.939 38.2566 217.894 32.4114 217.894 25.3972C217.894 18.1882 219.939 12.343 224.031 7.86175C228.318 3.18562 234.845 0.847556 243.612 0.847556C252.38 0.847556 258.81 3.18562 262.901 7.86175C267.188 12.343 269.331 18.1882 269.331 25.3972C269.331 32.4114 267.188 38.2566 262.901 42.9327C258.81 47.414 252.38 49.6546 243.612 49.6546ZM306.736 225.594V65.4366H343.852V134.117H341.222C341.222 117.751 343.268 104.112 347.359 93.2011C351.646 82.2901 358.076 74.1069 366.648 68.6514C375.221 63.196 385.645 60.4682 397.92 60.4682H399.966C418.67 60.4682 432.894 66.6056 442.636 78.8805C452.572 90.9605 457.541 109.373 457.541 134.117V225.594H410.779V131.487C410.779 122.914 408.247 115.9 403.181 110.444C398.115 104.989 391.296 102.261 382.723 102.261C373.955 102.261 366.843 105.086 361.388 110.737C356.127 116.192 353.497 123.401 353.497 132.364V225.594H306.736ZM488.621 225.594V12.2456H535.382V135.286H528.368C528.368 119.115 530.413 105.476 534.505 94.3701C538.597 83.2643 544.637 74.8863 552.625 69.2359C560.613 63.3908 570.648 60.4682 582.728 60.4682H584.773C602.504 60.4682 616.045 66.8005 625.397 79.465C634.75 91.9347 639.426 110.249 639.426 134.409V225.594H592.664V131.487C592.664 122.719 590.034 115.705 584.773 110.444C579.708 104.989 572.986 102.261 564.608 102.261C555.84 102.261 548.728 105.086 543.273 110.737C538.012 116.387 535.382 123.888 535.382 133.24V225.594H488.621ZM743.862 231.147C730.223 231.147 718.143 228.809 707.622 224.133C697.296 219.457 688.625 213.222 681.611 205.428C674.792 197.44 669.531 188.575 665.829 178.833C662.322 168.896 660.569 158.764 660.569 148.438V142.593C660.569 131.877 662.322 121.648 665.829 111.906C669.531 101.969 674.792 93.1037 681.611 85.3101C688.431 77.5166 696.906 71.3792 707.038 66.8979C717.364 62.2217 729.054 59.8837 742.109 59.8837C759.254 59.8837 773.673 63.7805 785.363 71.574C797.248 79.1727 806.308 89.2069 812.543 101.677C818.778 113.951 821.895 127.395 821.895 142.008V157.79H680.15V131.195H793.546L778.349 143.469C778.349 133.922 776.985 125.739 774.257 118.92C771.529 112.1 767.438 106.937 761.982 103.43C756.722 99.7282 750.097 97.8772 742.109 97.8772C733.925 97.8772 727.009 99.7282 721.358 103.43C715.708 107.132 711.422 112.588 708.499 119.797C705.576 126.811 704.115 135.481 704.115 145.808C704.115 155.355 705.479 163.733 708.207 170.942C710.934 177.956 715.221 183.411 721.066 187.308C726.911 191.205 734.51 193.153 743.862 193.153C752.435 193.153 759.449 191.497 764.905 188.185C770.36 184.873 774.062 180.781 776.011 175.91H818.973C816.634 186.626 812.056 196.173 805.236 204.551C798.417 212.929 789.844 219.457 779.518 224.133C769.191 228.809 757.306 231.147 743.862 231.147ZM851.712 225.594V65.4366H898.474V225.594H851.712ZM830.377 99.923V65.4366H898.474V99.923H830.377ZM869.832 49.6546C861.065 49.6546 854.537 47.414 850.251 42.9327C846.159 38.2566 844.114 32.4114 844.114 25.3972C844.114 18.1882 846.159 12.343 850.251 7.86175C854.537 3.18562 861.065 0.847556 869.832 0.847556C878.6 0.847556 885.03 3.18562 889.121 7.86175C893.408 12.343 895.551 18.1882 895.551 25.3972C895.551 32.4114 893.408 38.2566 889.121 42.9327C885.03 47.414 878.6 49.6546 869.832 49.6546ZM932.955 225.594V65.4366H970.072V134.117H969.195C969.195 111.516 973.969 94.0779 983.516 81.803C993.258 69.5282 1007.29 63.3908 1025.6 63.3908H1031.74V103.722H1020.05C1007.19 103.722 997.252 107.229 990.238 114.244C983.224 121.063 979.717 131 979.717 144.054V225.594H932.955ZM1124.38 231.147C1110.35 231.147 1097.88 229.004 1086.97 224.717C1076.06 220.236 1066.8 214.196 1059.2 206.597C1051.8 198.999 1046.15 190.328 1042.25 180.586C1038.35 170.649 1036.41 160.226 1036.41 149.315V142.593C1036.41 131.487 1038.35 120.966 1042.25 111.029C1046.34 100.897 1052.19 92.0321 1059.79 84.4334C1067.58 76.8347 1076.93 70.8921 1087.84 66.6056C1098.75 62.1243 1110.93 59.8837 1124.38 59.8837C1138.21 59.8837 1150.48 62.1243 1161.2 66.6056C1172.11 70.8921 1181.37 76.8347 1188.96 84.4334C1196.56 92.0321 1202.41 100.897 1206.5 111.029C1210.59 120.966 1212.64 131.487 1212.64 142.593V149.315C1212.64 160.226 1210.69 170.649 1206.79 180.586C1202.9 190.328 1197.15 198.999 1189.55 206.597C1182.14 214.196 1172.99 220.236 1162.08 224.717C1151.17 229.004 1138.6 231.147 1124.38 231.147ZM1124.38 191.692C1133.53 191.692 1141.13 189.744 1147.17 185.847C1153.21 181.95 1157.79 176.495 1160.91 169.48C1164.22 162.466 1165.88 154.673 1165.88 146.1C1165.88 136.942 1164.22 128.954 1160.91 122.135C1157.6 115.12 1152.82 109.568 1146.59 105.476C1140.55 101.384 1133.14 99.3385 1124.38 99.3385C1115.8 99.3385 1108.4 101.384 1102.16 105.476C1095.93 109.568 1091.16 115.12 1087.84 122.135C1084.73 128.954 1083.17 136.942 1083.17 146.1C1083.17 154.673 1084.73 162.466 1087.84 169.48C1090.96 176.495 1095.64 181.95 1101.87 185.847C1108.11 189.744 1115.61 191.692 1124.38 191.692Z" fill="url(#paint0_linear_11010_12)"/>
<defs>
<linearGradient id="paint0_linear_11010_12" x1="-23" y1="126.094" x2="1224" y2="126.094" gradientUnits="userSpaceOnUse">
<stop stop-color="#1B1B1B"/>
<stop offset="1" stop-color="#292929"/>
</linearGradient>
</defs>
</svg>
