<svg width="222" height="28" viewBox="0 0 222 28" fill="none" xmlns="http://www.w3.org/2000/svg">
<g clip-path="url(#clip0_11003_109)">
<path d="M0 1.31111C6.51928 1.31111 12.4741 1.0885 18.0367 1.0885C24.6726 1.0885 29.0956 3.84992 29.0956 7.99205C29.0956 10.8939 27.2909 12.582 24.7892 13.756C27.6248 14.9883 29.6892 16.8699 29.6892 20.0183C29.6892 24.5155 25.0277 27.5154 18.0367 27.5154C11.0457 27.5154 6.67034 27.2928 0 27.2928L0 1.31111ZM17.8326 11.9248C21.1718 11.9248 23.4005 10.5653 23.4005 8.69698C23.4005 6.68289 21.1108 5.24653 17.777 5.24653C13.8071 5.24653 8.98388 5.44264 5.8276 5.45059V11.9275H17.8326V11.9248ZM17.8697 23.0765C21.3599 23.0765 23.7503 21.55 23.7503 19.3451C23.7503 17.4344 21.4394 15.9874 17.9227 15.9874H5.8276V22.8724C9.15614 22.8804 13.3539 23.0765 17.8697 23.0765Z" fill="white"/>
<path d="M32.8193 1.31111C39.2671 1.31111 43.1256 1.0885 49.8887 1.0885C57.2454 1.0885 62.8054 4.91261 62.8054 9.84713C62.8054 13.8249 59.0634 17.1667 54.007 18.1155L62.5828 27.2902H54.6192L47.8534 18.3831H38.7582V27.2902H32.8193V1.31111ZM50.8746 14.2278C54.272 14.2278 56.6651 12.1845 56.6651 10.0697C56.6651 7.95494 54.1342 5.7845 50.2067 5.7845C45.8234 5.7845 41.7343 5.97796 38.7582 5.98856V14.135C40.4623 14.135 46.8331 14.2278 50.8746 14.2278Z" fill="white"/>
<path d="M80.418 0.940063C89.9928 0.940063 96.377 6.3781 96.377 14.2993C96.377 22.2205 89.9928 27.6585 80.418 27.6585C70.8431 27.6585 64.459 22.2231 64.459 14.2993C64.459 6.37545 70.8431 0.940063 80.418 0.940063ZM80.418 22.9466C86.2376 22.9466 90.1227 19.4882 90.1227 14.2993C90.1227 9.11036 86.2376 5.65197 80.418 5.65197C74.5983 5.65197 70.7132 9.11036 70.7132 14.2993C70.7132 19.4882 74.5957 22.9466 80.418 22.9466Z" fill="white"/>
<path d="M99.5249 1.31116H105.535V11.7394H112.768L121.526 1.31116H128.83L117.188 13.9548L129.206 27.2902H121.624L112.595 16.4513H105.535V27.2902H99.5249V1.31116Z" fill="white"/>
<path d="M131.403 1.31116H157.011V5.93296H137.416V12.2031H154.785V16.3983H137.416V22.6684H157.011V27.2902H131.403V1.31116Z" fill="white"/>
<path d="M159.871 1.31111C166.318 1.31111 170.177 1.0885 176.943 1.0885C184.299 1.0885 189.857 4.91261 189.857 9.84713C189.857 13.8249 186.115 17.1667 181.058 18.1155L189.634 27.2902H181.673L174.905 18.3831H165.81V27.2902H159.871V1.31111ZM177.926 14.2278C181.323 14.2278 183.714 12.1845 183.714 10.0697C183.714 7.95494 181.183 5.7845 177.255 5.7845C172.872 5.7845 168.783 5.97796 165.807 5.98856V14.135C167.511 14.135 173.882 14.2278 177.923 14.2278" fill="white"/>
<path d="M191.683 18.2164C196.772 22.0007 201.491 23.1323 206.489 23.1323C212.805 23.1323 215.879 21.0599 215.879 19.014C215.879 16.7932 214.183 16.0751 209.248 16.0751C208.212 16.0751 206.863 16.1387 205.827 16.1387C197.315 16.1387 192.054 13.364 192.054 8.54609C192.054 3.40752 197.927 0.919067 206.603 0.919067C211.318 0.919067 215.98 1.6346 219.48 3.52413V7.98162C215.677 5.86153 211.199 5.0771 206.452 5.0771C201.706 5.0771 198.232 6.23254 198.232 8.52754C198.232 10.1547 200.113 11.13 204.772 11.13C205.819 11.13 207.168 11.0611 208.215 11.0611C214.922 11.0611 222.001 12.4789 222.001 18.9743C222.001 24.1606 214.798 27.6587 206.431 27.6587C201.025 27.6587 196.779 26.3549 191.681 23.6385V18.2164H191.683Z" fill="white"/>
</g>
<defs>
<clipPath id="clip0_11003_109">
<rect width="222" height="26.7396" fill="white" transform="translate(0 0.921631)"/>
</clipPath>
</defs>
</svg>
