<svg width="100" height="100" viewBox="0 0 100 100" fill="none" xmlns="http://www.w3.org/2000/svg">
<rect width="100" height="100" rx="12" fill="#214B3B"/>
<path d="M29 32.3117C38.2225 32.3117 46.6465 32 54.5157 32C63.9032 32 70.1602 35.8662 70.1602 41.6656C70.1602 45.7284 67.6072 48.092 64.0681 49.7357C68.0795 51.461 71 54.0954 71 58.5033C71 64.7998 64.4055 69 54.5157 69C44.6258 69 38.4362 68.6883 29 68.6883L29 32.3117ZM54.227 47.1718C58.9507 47.1718 62.1036 45.2684 62.1036 42.6525C62.1036 39.8326 58.8645 37.8216 54.1483 37.8216C48.5323 37.8216 41.7091 38.0962 37.244 38.1073V47.1755H54.227V47.1718ZM54.2795 62.7851C59.2169 62.7851 62.5985 60.6479 62.5985 57.5609C62.5985 54.8857 59.3294 52.8598 54.3545 52.8598H37.244V62.4994C41.9528 62.5105 47.8912 62.7851 54.2795 62.7851Z" fill="white"/>
</svg>
