<svg width="111" height="14" viewBox="0 0 111 14" fill="none" xmlns="http://www.w3.org/2000/svg">
<g clip-path="url(#clip0_9060_3637)">
<path d="M0 0.194801C3.25964 0.194801 6.23704 0.0834961 9.01834 0.0834961C12.3363 0.0834961 14.5478 1.46421 14.5478 3.53527C14.5478 4.98621 13.6454 5.83027 12.3946 6.41727C13.8124 7.03342 14.8446 7.97421 14.8446 9.54838C14.8446 11.797 12.5138 13.297 9.01834 13.297C5.52284 13.297 3.33517 13.1857 0 13.1857L0 0.194801ZM8.91631 5.50165C10.5859 5.50165 11.7003 4.8219 11.7003 3.88773C11.7003 2.88069 10.5554 2.16251 8.88848 2.16251C6.90355 2.16251 4.49194 2.26056 2.9138 2.26454V5.50298H8.91631V5.50165ZM8.93486 11.0775C10.68 11.0775 11.8752 10.3143 11.8752 9.21181C11.8752 8.25645 10.7197 7.53296 8.96136 7.53296H2.9138V10.9755C4.57807 10.9794 6.67696 11.0775 8.93486 11.0775Z" fill="white"/>
<path d="M16.4097 0.194801C19.6335 0.194801 21.5628 0.0834961 24.9444 0.0834961C28.6227 0.0834961 31.4027 1.99555 31.4027 4.46281C31.4027 6.45172 29.5317 8.12262 27.0035 8.59699L31.2914 13.1843H27.3096L23.9267 8.73082H19.3791V13.1843H16.4097V0.194801ZM25.4373 6.65313C27.136 6.65313 28.3325 5.63151 28.3325 4.57411C28.3325 3.51672 27.0671 2.4315 25.1034 2.4315C22.9117 2.4315 20.8672 2.52823 19.3791 2.53353V6.60675C20.2311 6.60675 23.4166 6.65313 25.4373 6.65313Z" fill="white"/>
<path d="M40.209 0.00927734C44.9964 0.00927734 48.1885 2.72829 48.1885 6.68889C48.1885 10.6495 44.9964 13.3685 40.209 13.3685C35.4216 13.3685 32.2295 10.6508 32.2295 6.68889C32.2295 2.72697 35.4216 0.00927734 40.209 0.00927734ZM40.209 11.0125C43.1188 11.0125 45.0613 9.28335 45.0613 6.68889C45.0613 4.09443 43.1188 2.36523 40.209 2.36523C37.2992 2.36523 35.3566 4.09443 35.3566 6.68889C35.3566 9.28335 37.2978 11.0125 40.209 11.0125Z" fill="white"/>
<path d="M49.7627 0.194824H52.7679V5.40892H56.384L60.7633 0.194824H64.4152L58.5942 6.51667L64.6033 13.1844H60.8123L56.2979 7.76487H52.7679V13.1844H49.7627V0.194824Z" fill="white"/>
<path d="M65.7017 0.194824H78.5057V2.50572H68.7082V5.64081H77.3926V7.73837H68.7082V10.8735H78.5057V13.1844H65.7017V0.194824Z" fill="white"/>
<path d="M79.9355 0.194801C83.1594 0.194801 85.0887 0.0834961 88.4716 0.0834961C92.1499 0.0834961 94.9286 1.99555 94.9286 4.46281C94.9286 6.45172 93.0576 8.12262 90.5294 8.59699L94.8173 13.1843H90.8368L87.4526 8.73082H82.905V13.1843H79.9355V0.194801ZM88.9632 6.65313C90.6619 6.65313 91.8571 5.63151 91.8571 4.57411C91.8571 3.51672 90.5916 2.4315 88.6279 2.4315C86.4363 2.4315 84.3917 2.52823 82.9037 2.53353V6.60675C83.7557 6.60675 86.9411 6.65313 88.9618 6.65313" fill="white"/>
<path d="M95.8417 8.64742C98.3858 10.5396 100.746 11.1054 103.245 11.1054C106.402 11.1054 107.939 10.0692 107.939 9.04627C107.939 7.93587 107.091 7.57678 104.624 7.57678C104.106 7.57678 103.432 7.60858 102.913 7.60858C98.6574 7.60858 96.0272 6.22125 96.0272 3.81229C96.0272 1.24301 98.9635 -0.0012207 103.302 -0.0012207C105.659 -0.0012207 107.99 0.356545 109.74 1.30131V3.53006C107.839 2.47001 105.599 2.07779 103.226 2.07779C100.853 2.07779 99.1159 2.65552 99.1159 3.80302C99.1159 4.6166 100.057 5.10422 102.386 5.10422C102.91 5.10422 103.584 5.06977 104.107 5.06977C107.461 5.06977 111 5.77868 111 9.02639C111 11.6195 107.399 13.3686 103.216 13.3686C100.512 13.3686 98.3897 12.7167 95.8403 11.3585V8.64742H95.8417Z" fill="white"/>
</g>
<defs>
<clipPath id="clip0_9060_3637">
<rect width="111" height="13.3698" fill="white"/>
</clipPath>
</defs>
</svg>
