<svg width="147" height="18" viewBox="0 0 147 18" fill="none" xmlns="http://www.w3.org/2000/svg">
<g clip-path="url(#clip0_9007_263)">
<path d="M0 0.262156C4.31682 0.262156 8.25987 0.112305 11.9432 0.112305C16.3372 0.112305 19.266 1.97118 19.266 4.75948C19.266 6.7129 18.071 7.84927 16.4144 8.63956C18.2921 9.46909 19.6591 10.7357 19.6591 12.855C19.6591 15.8824 16.5724 17.9018 11.9432 17.9018C7.31403 17.9018 4.41684 17.7519 0 17.7519L0 0.262156ZM11.8081 7.40685C14.0191 7.40685 15.4949 6.49169 15.4949 5.23401C15.4949 3.87821 13.9788 2.91131 11.7712 2.91131C9.14253 2.91131 5.94879 3.04333 3.85882 3.04868V7.40864H11.8081V7.40685ZM11.8326 14.9137C14.1437 14.9137 15.7266 13.8861 15.7266 12.4019C15.7266 11.1157 14.1964 10.1416 11.8677 10.1416H3.85882V14.7763C6.06285 14.7817 8.84246 14.9137 11.8326 14.9137Z" fill="#2D644F"/>
<path d="M21.7314 0.262156C26.0009 0.262156 28.5559 0.112305 33.0341 0.112305C37.9055 0.112305 41.5871 2.68654 41.5871 6.00824C41.5871 8.68594 39.1093 10.9355 35.7611 11.5741L41.4397 17.7502H36.1665L31.6865 11.7543H25.664V17.7502H21.7314V0.262156ZM33.6869 8.9571C35.9366 8.9571 37.5212 7.58168 37.5212 6.15809C37.5212 4.7345 35.8453 3.27345 33.2447 3.27345C30.3423 3.27345 27.6346 3.40368 25.664 3.41082V8.89466C26.7923 8.89466 31.0109 8.9571 33.6869 8.9571Z" fill="#2D644F"/>
<path d="M53.2496 0.0124512C59.5897 0.0124512 63.817 3.67311 63.817 9.00532C63.817 14.3375 59.5897 17.9982 53.2496 17.9982C46.9095 17.9982 42.6821 14.3393 42.6821 9.00532C42.6821 3.67132 46.9095 0.0124512 53.2496 0.0124512ZM53.2496 14.8263C57.1031 14.8263 59.6757 12.4983 59.6757 9.00532C59.6757 5.51235 57.1031 3.1843 53.2496 3.1843C49.396 3.1843 46.8235 5.51235 46.8235 9.00532C46.8235 12.4983 49.3943 14.8263 53.2496 14.8263Z" fill="#2D644F"/>
<path d="M65.9019 0.262207H69.8818V7.28203H74.6706L80.4702 0.262207H85.3065L77.5976 8.77341L85.5557 17.7502H80.5352L74.5566 10.4539H69.8818V17.7502H65.9019V0.262207Z" fill="#2D644F"/>
<path d="M87.0103 0.262207H103.967V3.37341H90.9919V7.59422H102.493V10.4182H90.9919V14.639H103.967V17.7502H87.0103V0.262207Z" fill="#2D644F"/>
<path d="M105.86 0.262156C110.13 0.262156 112.685 0.112305 117.165 0.112305C122.036 0.112305 125.716 2.68654 125.716 6.00824C125.716 8.68594 123.238 10.9355 119.89 11.5741L125.569 17.7502H120.297L115.815 11.7543H109.793V17.7502H105.86V0.262156ZM117.816 8.9571C120.065 8.9571 121.648 7.58168 121.648 6.15809C121.648 4.7345 119.972 3.27345 117.372 3.27345C114.469 3.27345 111.762 3.40368 109.791 3.41082V8.89466C110.919 8.89466 115.138 8.9571 117.814 8.9571" fill="#2D644F"/>
<path d="M126.925 11.6421C130.294 14.1896 133.42 14.9513 136.729 14.9513C140.911 14.9513 142.946 13.5563 142.946 12.1791C142.946 10.6841 141.823 10.2007 138.556 10.2007C137.87 10.2007 136.977 10.2435 136.29 10.2435C130.654 10.2435 127.171 8.37569 127.171 5.13248C127.171 1.67342 131.059 -0.00170898 136.805 -0.00170898C139.926 -0.00170898 143.013 0.479956 145.331 1.75191V4.7525C142.813 3.32535 139.847 2.7973 136.705 2.7973C133.562 2.7973 131.261 3.5751 131.261 5.12C131.261 6.21534 132.507 6.87183 135.592 6.87183C136.285 6.87183 137.178 6.82545 137.872 6.82545C142.313 6.82545 147 7.77986 147 12.1523C147 15.6435 142.231 17.9983 136.691 17.9983C133.111 17.9983 130.3 17.1206 126.923 15.292V11.6421H126.925Z" fill="#2D644F"/>
</g>
<defs>
<clipPath id="clip0_9007_263">
<rect width="147" height="18" fill="white"/>
</clipPath>
</defs>
</svg>
