<svg width="138" height="18" viewBox="0 0 138 18" fill="none" xmlns="http://www.w3.org/2000/svg">
<g clip-path="url(#clip0_9001_532)">
<path d="M0 0.950187C4.04298 0.950187 7.73589 0.812134 11.1856 0.812134C15.3009 0.812134 18.0438 2.52465 18.0438 5.09342C18.0438 6.89304 16.9246 7.93994 15.3732 8.668C17.1317 9.43222 18.412 10.5991 18.412 12.5516C18.412 15.3406 15.5211 17.201 11.1856 17.201C6.85005 17.201 4.13666 17.0629 0 17.0629L0 0.950187ZM11.059 7.53235C13.1298 7.53235 14.512 6.68924 14.512 5.53059C14.512 4.28154 13.092 3.39077 11.0245 3.39077C8.56257 3.39077 5.57142 3.51238 3.61403 3.51731V7.534H11.059V7.53235ZM11.082 14.4481C13.2465 14.4481 14.7289 13.5015 14.7289 12.1341C14.7289 10.9492 13.2958 10.0518 11.1149 10.0518H3.61403V14.3216C5.67825 14.3265 8.28153 14.4481 11.082 14.4481Z" fill="white"/>
<path d="M20.353 0.950187C24.3516 0.950187 26.7445 0.812134 30.9387 0.812134C35.501 0.812134 38.9491 3.18369 38.9491 6.24386C38.9491 8.71073 36.6285 10.7832 33.4927 11.3715L38.811 17.0613H33.8724L29.6765 11.5375H24.0361V17.0613H20.353V0.950187ZM31.5501 8.96054C33.6571 8.96054 35.1411 7.69341 35.1411 6.38191C35.1411 5.07041 33.5716 3.72439 31.1359 3.72439C28.4176 3.72439 25.8817 3.84437 24.0361 3.85094V8.90302C25.0928 8.90302 29.0438 8.96054 31.5501 8.96054Z" fill="white"/>
<path d="M49.8717 0.720093C55.8096 0.720093 59.7688 4.09253 59.7688 9.00491C59.7688 13.9173 55.8096 17.2897 49.8717 17.2897C43.9338 17.2897 39.9746 13.9189 39.9746 9.00491C39.9746 4.09089 43.9338 0.720093 49.8717 0.720093ZM49.8717 14.3676C53.4808 14.3676 55.8901 12.2229 55.8901 9.00491C55.8901 5.78696 53.4808 3.64221 49.8717 3.64221C46.2626 3.64221 43.8532 5.78696 43.8532 9.00491C43.8532 12.2229 46.261 14.3676 49.8717 14.3676Z" fill="white"/>
<path d="M61.7212 0.950195H65.4486V7.41732H69.9337L75.3654 0.950195H79.8949L72.675 8.79127L80.1282 17.0613H75.4262L69.8269 10.3394H65.4486V17.0613H61.7212V0.950195Z" fill="white"/>
<path d="M81.4907 0.950195H97.3717V3.81644H85.2198V7.70493H95.9912V10.3066H85.2198V14.1951H97.3717V17.0613H81.4907V0.950195Z" fill="white"/>
<path d="M99.145 0.950187C103.144 0.950187 105.537 0.812134 109.732 0.812134C114.295 0.812134 117.741 3.18369 117.741 6.24386C117.741 8.71073 115.42 10.7832 112.285 11.3715L117.603 17.0613H112.666L108.469 11.5375H102.828V17.0613H99.145V0.950187ZM110.342 8.96054C112.449 8.96054 113.931 7.69341 113.931 6.38191C113.931 5.07041 112.362 3.72439 109.926 3.72439C107.208 3.72439 104.672 3.84437 102.826 3.85094V8.90302C103.883 8.90302 107.834 8.96054 110.34 8.96054" fill="white"/>
<path d="M118.874 11.4341C122.029 13.781 124.956 14.4827 128.056 14.4827C131.972 14.4827 133.879 13.1975 133.879 11.9288C133.879 10.5515 132.827 10.1061 129.767 10.1061C129.124 10.1061 128.288 10.1456 127.645 10.1456C122.366 10.1456 119.104 8.42485 119.104 5.43699C119.104 2.25027 122.746 0.707031 128.127 0.707031C131.05 0.707031 133.941 1.15077 136.112 2.32258V5.08692C133.754 3.77213 130.976 3.28566 128.033 3.28566C125.089 3.28566 122.935 4.00222 122.935 5.42548C122.935 6.43458 124.102 7.03939 126.991 7.03939C127.64 7.03939 128.477 6.99666 129.126 6.99666C133.285 6.99666 137.675 7.87592 137.675 11.9041C137.675 15.1204 133.208 17.2898 128.02 17.2898C124.667 17.2898 122.034 16.4812 118.872 14.7966V11.4341H118.874Z" fill="white"/>
</g>
<defs>
<clipPath id="clip0_9001_532">
<rect width="137.675" height="16.5828" fill="white" transform="translate(0 0.708618)"/>
</clipPath>
</defs>
</svg>
